[Header]
FileType HTR
DataType HTRS
FileVersion 1
NumSegments 64
NumFrames 3
DataFrameRate 24
EulerRotationOrder ZYX
CalibrationUnits mm
RotationUnits Degrees
GlobalAxisofGravity Y
BoneLengthAxis Y
ScaleFactor 1.0
[SegmentNames&Hierarchy]
Hips	GLOBAL
Spine	Hips
Spine1	Spine
Spine2	Spine1
Neck	Spine2
Head	Neck
LeftEye	Head
RightEye	Head
LeftShoulder	Spine2
LeftArm	LeftShoulder
LeftForeArm	LeftArm
LeftHand	LeftForeArm
LeftHandThumb1	LeftHand
LeftHandThumb2	LeftHandThumb1
LeftHandThumb3	LeftHandThumb2
LeftHandThumb4	LeftHandThumb3
LeftHandIndex1	LeftHand
LeftHandIndex2	LeftHandIndex1
LeftHandIndex3	LeftHandIndex2
LeftHandIndex4	LeftHandIndex3
LeftHandMiddle1	LeftHand
LeftHandMiddle2	LeftHandMiddle1
LeftHandMiddle3	LeftHandMiddle2
LeftHandMiddle4	LeftHandMiddle3
LeftHandRing1	LeftHand
LeftHandRing2	LeftHandRing1
LeftHandRing3	LeftHandRing2
LeftHandRing4	LeftHandRing3
LeftHandPinky1	LeftHand
LeftHandPinky2	LeftHandPinky1
LeftHandPinky3	LeftHandPinky2
LeftHandPinky4	LeftHandPinky3
RightShoulder	Spine2
RightArm	RightShoulder
RightForeArm	RightArm
RightHand	RightForeArm
RightHandPinky1	RightHand
RightHandPinky2	RightHandPinky1
RightHandPinky3	RightHandPinky2
RightHandPinky4	RightHandPinky3
RightHandRing1	RightHand
RightHandRing2	RightHandRing1
RightHandRing3	RightHandRing2
RightHandRing4	RightHandRing3
RightHandMiddle1	RightHand
RightHandMiddle2	RightHandMiddle1
RightHandMiddle3	RightHandMiddle2
RightHandMiddle4	RightHandMiddle3
RightHandIndex1	RightHand
RightHandIndex2	RightHandIndex1
RightHandIndex3	RightHandIndex2
RightHandIndex4	RightHandIndex3
RightHandThumb1	RightHand
RightHandThumb2	RightHandThumb1
RightHandThumb3	RightHandThumb2
RightHandThumb4	RightHandThumb3
LeftUpLeg	Hips
LeftLeg	LeftUpLeg
LeftFoot	LeftLeg
LeftToeBase	LeftFoot
RightUpLeg	Hips
RightLeg	RightUpLeg
RightFoot	RightLeg
RightToeBase	RightFoot
[BasePosition]
Hips	0	0	0	0	0	0	1
Spine	0	0	0	0	0	0	1
Spine1	0	0	0	0	0	0	1
Spine2	0	0	0	0	0	0	1
Neck	0	0	0	0	0	0	1
Head	0	0	0	0	0	0	1
LeftEye	0	0	0	0	0	0	1
RightEye	0	0	0	0	0	0	1
LeftShoulder	0	0	0	0	0	0	1
LeftArm	0	0	0	0	0	0	1
LeftForeArm	0	0	0	0	0	0	1
LeftHand	0	0	0	0	0	0	1
LeftHandThumb1	0	0	0	0	0	0	1
LeftHandThumb2	0	0	0	0	0	0	1
LeftHandThumb3	0	0	0	0	0	0	1
LeftHandThumb4	0	0	0	0	0	0	1
LeftHandIndex1	0	0	0	0	0	0	1
LeftHandIndex2	0	0	0	0	0	0	1
LeftHandIndex3	0	0	0	0	0	0	1
LeftHandIndex4	0	0	0	0	0	0	1
LeftHandMiddle1	0	0	0	0	0	0	1
LeftHandMiddle2	0	0	0	0	0	0	1
LeftHandMiddle3	0	0	0	0	0	0	1
LeftHandMiddle4	0	0	0	0	0	0	1
LeftHandRing1	0	0	0	0	0	0	1
LeftHandRing2	0	0	0	0	0	0	1
LeftHandRing3	0	0	0	0	0	0	1
LeftHandRing4	0	0	0	0	0	0	1
LeftHandPinky1	0	0	0	0	0	0	1
LeftHandPinky2	0	0	0	0	0	0	1
LeftHandPinky3	0	0	0	0	0	0	1
LeftHandPinky4	0	0	0	0	0	0	1
RightShoulder	0	0	0	0	0	0	1
RightArm	0	0	0	0	0	0	1
RightForeArm	0	0	0	0	0	0	1
RightHand	0	0	0	0	0	0	1
RightHandPinky1	0	0	0	0	0	0	1
RightHandPinky2	0	0	0	0	0	0	1
RightHandPinky3	0	0	0	0	0	0	1
RightHandPinky4	0	0	0	0	0	0	1
RightHandRing1	0	0	0	0	0	0	1
RightHandRing2	0	0	0	0	0	0	1
RightHandRing3	0	0	0	0	0	0	1
RightHandRing4	0	0	0	0	0	0	1
RightHandMiddle1	0	0	0	0	0	0	1
RightHandMiddle2	0	0	0	0	0	0	1
RightHandMiddle3	0	0	0	0	0	0	1
RightHandMiddle4	0	0	0	0	0	0	1
RightHandIndex1	0	0	0	0	0	0	1
RightHandIndex2	0	0	0	0	0	0	1
RightHandIndex3	0	0	0	0	0	0	1
RightHandIndex4	0	0	0	0	0	0	1
RightHandThumb1	0	0	0	0	0	0	1
RightHandThumb2	0	0	0	0	0	0	1
RightHandThumb3	0	0	0	0	0	0	1
RightHandThumb4	0	0	0	0	0	0	1
LeftUpLeg	0	0	0	0	0	0	1
LeftLeg	0	0	0	0	0	0	1
LeftFoot	0	0	0	0	0	0	1
LeftToeBase	0	0	0	0	0	0	1
RightUpLeg	0	0	0	0	0	0	1
RightLeg	0	0	0	0	0	0	1
RightFoot	0	0	0	0	0	0	1
RightToeBase	0	0	0	0	0	0	1
[Hips]
15	76.90018463	1016.192993	67.35176849	3.898208618	-43.26957703	-6.974413395	1.0
16	67.84708405	1017.818726	69.08234406	4.437198639	-46.46206665	-7.336390972	1.0
17	59.31375504	1019.419922	70.71704102	5.07588768	-49.64915085	-7.80960083	1.0
[Spine]
15	0	101.8159943	1.315000057	1.454957843	-4.703260422	2.419862747	1.0
16	0	101.8159943	1.315000057	1.508490324	-3.849873781	2.389235735	1.0
17	0	101.8159943	1.315000057	1.574782372	-2.825621605	2.341269732	1.0
[Spine1]
15	0	100.8349991	-10.00800037	0.9033135176	-4.403599739	4.362845421	1.0
16	0	100.8349991	-10.00800037	0.9770989418	-2.976558685	4.849109173	1.0
17	0	100.8349991	-10.00800037	1.068745852	-1.469259262	5.396494865	1.0
[Spine2]
15	0	91	-13.73399925	0.8701626062	-3.948700905	4.324706078	1.0
16	0	91	-13.73399925	0.8719161749	-2.501113176	4.796727657	1.0
17	0	91	-13.73399925	0.9010156393	-0.9698269367	5.324550152	1.0
[Neck]
15	0	166.7169952	-25.16200066	0.6950768828	-5.702466488	1.107778788	1.0
16	0	166.7169952	-25.16200066	1.116770029	-6.045824528	0.3679938316	1.0
17	0	166.7169952	-25.16200066	1.696598887	-6.531439304	-0.3449082375	1.0
[Head]
15	0	96.17900085	16.84999847	-3.636114836	-13.10374546	0.6767466068	1.0
16	0	96.17900085	16.84999847	-2.980651855	-15.85365677	1.404819012	1.0
17	0	96.17900085	16.84999847	-2.13438797	-18.05435753	1.560168028	1.0
[LeftEye]
15	30.6760006	64.09500122	92.83599854	0	0	0	1.0
16	30.6760006	64.09500122	92.83599854	0	0	0	1.0
17	30.6760006	64.09500122	92.83599854	0	0	0	1.0
[RightEye]
15	-30.6760006	64.09500122	92.83499908	0	0	0	1.0
16	-30.6760006	64.09500122	92.83499908	0	0	0	1.0
17	-30.6760006	64.09500122	92.83499908	0	0	0	1.0
[LeftShoulder]
15	45.70400238	109.4599991	-26.28000069	4.82249403	-13.91993046	-4.918057442	1.0
16	45.70400238	109.4599991	-26.28000069	4.837409973	-14.18391514	-5.093518734	1.0
17	45.70400238	109.4599991	-26.28000069	4.846897602	-14.17486954	-5.215533257	1.0
[LeftArm]
15	105.923996	-5.24600029	-22.32099915	-5.684190273	6.995834351	-83.02449799	1.0
16	105.923996	-5.24600029	-22.32099915	-5.695466518	6.120188713	-82.13864136	1.0
17	105.923996	-5.24600029	-22.32099915	-5.538561821	5.524466515	-81.44232941	1.0
[LeftForeArm]
15	278.414978	-0.0009999999311	0	2.541402864e-06	-14.41801262	-0.0002217541332	1.0
16	278.414978	-0.0009999999311	0	-3.246409733e-06	-15.28188324	-0.0002103015722	1.0
17	278.414978	-0.0009999999311	0	-7.499558251e-06	-16.17237091	-0.0002044975554	1.0
[LeftHand]
15	283.2879944	0	0	-27.84687996	-4.82189703	-5.556856632	1.0
16	283.2879944	0	0	-28.17781448	-6.457779408	-3.282608509	1.0
17	283.2879944	0	0	-28.44160461	-7.436985016	-1.961070895	1.0
[LeftHandThumb1]
15	24.6609993	-15.75	26.8239994	17.85254097	-4.407067299	10.08253002	1.0
16	24.6609993	-15.75	26.8239994	17.8145256	-4.575408936	9.996080399	1.0
17	24.6609993	-15.75	26.8239994	17.6951046	-4.961400986	9.830913544	1.0
[LeftHandThumb2]
15	32.29800034	-18.64699936	18.64699936	-0.8385881782	32.85271454	-3.031725407	1.0
16	32.29800034	-18.64699936	18.64699936	-0.9544156194	32.91212463	-3.078094244	1.0
17	32.29800034	-18.64699936	18.64699936	-1.119049311	33.1657753	-3.192867994	1.0
[LeftHandThumb3]
15	26.52600098	-15.31499958	15.31499958	2.110937834	9.390086174	-0.0377946645	1.0
16	26.52600098	-15.31499958	15.31499958	2.104201078	9.368944168	-0.03222144395	1.0
17	26.52600098	-15.31499958	15.31499958	2.09460783	9.338926315	-0.02430755273	1.0
[LeftHandThumb4]
15	19.54599953	-11.28499985	11.28499985	0	0	0	1.0
16	19.54599953	-11.28499985	11.28499985	0	0	0	1.0
17	19.54599953	-11.28499985	11.28499985	0	0	0	1.0
[LeftHandIndex1]
15	91.09299469	-5.170999527	22.60099792	-0.2975192368	4.686950207	-7.840212822	1.0
16	91.09299469	-5.170999527	22.60099792	-0.3144335747	4.650537491	-7.916518688	1.0
17	91.09299469	-5.170999527	22.60099792	-0.3545832038	4.675615311	-8.270923615	1.0
[LeftHandIndex2]
15	36.76399994	0	0	-0.6244562864	2.7634027	-20.49435234	1.0
16	36.76399994	0	0	-0.6235173345	2.761698484	-20.47521591	1.0
17	36.76399994	0	0	-0.6252739429	2.764960289	-20.51174355	1.0
[LeftHandIndex3]
15	28.83100128	0	0	-0.1083464548	0.7977721691	-10.09207058	1.0
16	28.83100128	0	0	-0.1080224589	0.7958834767	-10.0729723	1.0
17	28.83100128	0	0	-0.1086665541	0.7994904518	-10.10941505	1.0
[LeftHandIndex4]
15	23.92700005	0	0	0	0	0	1.0
16	23.92700005	0	0	0	0	0	1.0
17	23.92700005	0	0	0	0	0	1.0
[LeftHandMiddle1]
15	95.33399963	0	0	-1.515452504	8.643989563	-15.83129311	1.0
16	95.33399963	0	0	-1.525965095	8.642427444	-15.91916466	1.0
17	95.33399963	0	0	-1.566632032	8.697692871	-16.25319862	1.0
[LeftHandMiddle2]
15	36.98199844	0	0	-1.43261683	3.829593182	-33.50120926	1.0
16	36.98199844	0	0	-1.43097198	3.827826262	-33.47741318	1.0
17	36.98199844	0	0	-1.432192564	3.829144001	-33.49515533	1.0
[LeftHandMiddle3]
15	29.50900078	0	0	-0.1509206146	1.493622899	-12.34707832	1.0
16	29.50900078	0	0	-0.1503705978	1.491301894	-12.32315159	1.0
17	29.50900078	0	0	-0.1508014053	1.493091822	-12.34167862	1.0
[LeftHandMiddle4]
15	28.3390007	0	0	0	0	0	1.0
16	28.3390007	0	0	0	0	0	1.0
17	28.3390007	0	0	0	0	0	1.0
[LeftHandRing1]
15	91.04499817	-0.4390000105	-18.65100098	-3.013299465	11.48136139	-26.9070282	1.0
16	91.04499817	-0.4390000105	-18.65100098	-3.019813061	11.46244335	-26.9640522	1.0
17	91.04499817	-0.4390000105	-18.65100098	-3.063350439	11.4360733	-27.30780029	1.0
[LeftHandRing2]
15	31.54000092	0	0	-1.197409749	4.055407524	-40.20040131	1.0
16	31.54000092	0	0	-1.194712281	4.051987171	-40.15613556	1.0
17	31.54000092	0	0	-1.193575382	4.050528526	-40.13747406	1.0
[LeftHandRing3]
15	29.37700081	0	0	-0.09216097742	1.903061986	-19.3345089	1.0
16	29.37700081	0	0	-0.09110230207	1.898725986	-19.28974152	1.0
17	29.37700081	0	0	-0.09063407779	1.89679718	-19.26980782	1.0
[LeftHandRing4]
15	26.47500038	0	0	0	0	0	1.0
16	26.47500038	0	0	0	0	0	1.0
17	26.47500038	0	0	0	0	0	1.0
[LeftHandPinky1]
15	80.77799988	-4.887000084	-38.06099701	-5.190428257	15.8593483	-36.82845306	1.0
16	80.77799988	-4.887000084	-38.06099701	-5.195912361	15.78926182	-36.90619278	1.0
17	80.77799988	-4.887000084	-38.06099701	-5.238016605	15.70348835	-37.25791168	1.0
[LeftHandPinky2]
15	36	0	0	-1.937807679	3.810687542	-45.55949783	1.0
16	36	0	0	-1.934248805	3.807566881	-45.51195526	1.0
17	36	0	0	-1.932504177	3.806029797	-45.48860931	1.0
[LeftHandPinky3]
15	21.14200211	0	0	-0.5389110446	2.824423075	-20.42394829	1.0
16	21.14200211	0	0	-0.5368789434	2.820116997	-20.37654495	1.0
17	21.14200211	0	0	-0.535885036	2.818011284	-20.3532753	1.0
[LeftHandPinky4]
15	19.75699997	0	0	0	0	0	1.0
16	19.75699997	0	0	0	0	0	1.0
17	19.75699997	0	0	0	0	0	1.0
[RightShoulder]
15	-45.70000076	109.4620056	-26.28000069	4.697142601	3.213586807	5.278766632	1.0
16	-45.70000076	109.4620056	-26.28000069	4.57510519	2.688051462	4.565605164	1.0
17	-45.70000076	109.4620056	-26.28000069	4.520467758	1.808891654	4.03608799	1.0
[RightArm]
15	-105.9280014	-5.248000145	-22.32099915	-5.317279816	-1.864796042	71.50289154	1.0
16	-105.9280014	-5.248000145	-22.32099915	-3.589142799	-2.184472799	73.15460968	1.0
17	-105.9280014	-5.248000145	-22.32099915	-1.342536688	-2.56995821	74.11440277	1.0
[RightForeArm]
15	-278.414978	0	0	-8.435843483e-06	10.29395866	-1.782264735e-05	1.0
16	-278.414978	0	0	-4.615823855e-06	8.780999184	3.657812613e-06	1.0
17	-278.414978	0	0	1.300589929e-06	8.33788681	6.563158422e-06	1.0
[RightHand]
15	-283.2879944	0	0.0009999999311	-6.755889893	-6.218753338	14.89059258	1.0
16	-283.2879944	0	0.0009999999311	-5.925762177	-8.093959808	17.35419273	1.0
17	-283.2879944	0	0.0009999999311	-5.726222515	-8.994499207	18.86469269	1.0
[RightHandPinky1]
15	-80.76699829	-4.885000229	-38.06000137	-5.144837856	-16.53799057	35.90396881	1.0
16	-80.76699829	-4.885000229	-38.06000137	-4.975363255	-16.47559357	34.7171402	1.0
17	-80.76699829	-4.885000229	-38.06000137	-4.896321297	-16.42020988	34.18977737	1.0
[RightHandPinky2]
15	-36	0	0.0009999999311	-1.954800367	-3.825031996	45.80389404	1.0
16	-36	0	0.0009999999311	-1.964843512	-3.833757639	45.93734741	1.0
17	-36	0	0.0009999999311	-1.966143966	-3.834876537	45.9545517	1.0
[RightHandPinky3]
15	-21.14200211	0	0	-0.7718363404	0.0422689952	22.26404762	1.0
16	-21.14200211	0	0	-0.7779307961	0.0304215923	22.39680481	1.0
17	-21.14200211	0	0	-0.7787104845	0.02889113128	22.41392136	1.0
[RightHandPinky4]
15	-19.75699997	0	0	0	0	0	1.0
16	-19.75699997	0	0	0	0	0	1.0
17	-19.75699997	0	0	0	0	0	1.0
[RightHandRing1]
15	-91.03599548	-0.4390000105	-18.65100098	-2.848837376	-11.48838997	25.6341362	1.0
16	-91.03599548	-0.4390000105	-18.65100098	-2.693076372	-11.61284351	24.37202644	1.0
17	-91.03599548	-0.4390000105	-18.65100098	-2.627087116	-11.67183876	23.83193207	1.0
[RightHandRing2]
15	-31.54000092	0	0	-1.191040277	-4.046982765	40.09882355	1.0
16	-31.54000092	0	0	-1.189014196	-4.044388771	40.06548309	1.0
17	-31.54000092	0	0	-1.187196851	-4.042059898	40.0356369	1.0
[RightHandRing3]
15	-29.37700081	0	0	-0.136178419	0.09999228269	17.7131958	1.0
16	-29.37700081	0	0	-0.1355555356	0.1028642431	17.68347931	1.0
17	-29.37700081	0	0	-0.134975642	0.1056019515	17.65542221	1.0
[RightHandRing4]
15	-26.47500038	0	0	0	0	0	1.0
16	-26.47500038	0	0	0	0	0	1.0
17	-26.47500038	0	0	0	0	0	1.0
[RightHandMiddle1]
15	-95.32500458	0	0	-1.334508061	-8.964445114	14.28164387	1.0
16	-95.32500458	0	0	-1.163740754	-9.027846336	12.81294823	1.0
17	-95.32500458	0	0	-1.097283363	-9.043308258	12.23640537	1.0
[RightHandMiddle2]
15	-36.98199844	0	0	-1.422823787	-3.818673611	33.36021805	1.0
16	-36.98199844	0	0	-1.417854548	-3.813320398	33.28800201	1.0
17	-36.98199844	0	0	-1.414136529	-3.809265137	33.23363495	1.0
[RightHandMiddle3]
15	-29.50900078	0	0	-0.2520085275	-1.673524976	15.84950829	1.0
16	-29.50900078	0	0	-0.2500389218	-1.666962862	15.78102303	1.0
17	-29.50900078	0	0	-0.2485093474	-1.661936879	15.72814751	1.0
[RightHandMiddle4]
15	-28.3390007	0	0.0009999999311	0	0	0	1.0
16	-28.3390007	0	0.0009999999311	0	0	0	1.0
17	-28.3390007	0	0.0009999999311	0	0	0	1.0
[RightHandIndex1]
15	-91.08300018	-5.167999744	22.60099792	0.06568516791	-4.610914707	5.296868324	1.0
16	-91.08300018	-5.167999744	22.60099792	0.2721417546	-4.359118938	3.097446203	1.0
17	-91.08300018	-5.167999744	22.60099792	0.3533639014	-4.25428772	2.204706669	1.0
[RightHandIndex2]
15	-36.76399994	0	0	-0.632389605	-2.777930021	20.65989876	1.0
16	-36.76399994	0	0	-0.6360297203	-2.784635782	20.73495674	1.0
17	-36.76399994	0	0	-0.6366323829	-2.785741806	20.74737167	1.0
[RightHandIndex3]
15	-28.83100128	0	0	-0.2405989766	-0.1659329236	13.93128014	1.0
16	-28.83100128	0	0	-0.2424084097	-0.1732316762	14.00615311	1.0
17	-28.83100128	0	0	-0.2427131534	-0.1744443476	14.01854706	1.0
[RightHandIndex4]
15	-23.92700005	0	0	0	0	0	1.0
16	-23.92700005	0	0	0	0	0	1.0
17	-23.92700005	0	0	0	0	0	1.0
[RightHandThumb1]
15	-24.64799881	-15.72700024	26.82600021	18.55323601	2.116257429	-10.33850956	1.0
16	-24.64799881	-15.72700024	26.82600021	18.80109215	0.6423050761	-10.5558157	1.0
17	-24.64799881	-15.72700024	26.82600021	19.27950287	0.01647634804	-10.48518562	1.0
[RightHandThumb2]
15	-32.29800034	-18.64699936	18.64699936	-0.4411245883	-31.59226418	3.087396622	1.0
16	-32.29800034	-18.64699936	18.64699936	-0.4245987236	-30.83251381	3.213970423	1.0
17	-32.29800034	-18.64699936	18.64699936	-0.3835467994	-30.2889061	3.139284372	1.0
[RightHandThumb3]
15	-26.52600098	-15.31399918	15.31399918	1.84957993	-7.875161171	0.3524518609	1.0
16	-26.52600098	-15.31399918	15.31399918	1.843469977	-7.647719383	0.1679533273	1.0
17	-26.52600098	-15.31399918	15.31399918	1.843730807	-7.555455685	0.2498030514	1.0
[RightHandThumb4]
15	-19.54599953	-11.28499985	11.28499985	0	0	0	1.0
16	-19.54599953	-11.28499985	11.28499985	0	0	0	1.0
17	-19.54599953	-11.28499985	11.28499985	0	0	0	1.0
[LeftUpLeg]
15	82.07800293	-67.51699829	-15.99599934	-9.524251938	33.65442276	4.964655876	1.0
16	82.07800293	-67.51699829	-15.99599934	-7.391748905	35.97757721	6.69744873	1.0
17	82.07800293	-67.51699829	-15.99599934	-3.906451941	38.01525116	10.16941833	1.0
[LeftLeg]
15	0	-443.7049866	2.845999956	25.09692764	5.417059898	12.01323509	1.0
16	0	-443.7049866	2.845999956	24.04172516	6.322768211	10.54722786	1.0
17	0	-443.7049866	2.845999956	22.98906326	8.096153259	6.743297577	1.0
[LeftFoot]
15	0	-444.2789917	-29.8219986	-15.08671474	26.95676422	-17.4905777	1.0
16	0	-444.2789917	-29.8219986	-15.05476475	26.94519424	-17.37773705	1.0
17	0	-444.2789917	-29.8219986	-15.18645287	27.1721077	-16.28632736	1.0
[LeftToeBase]
15	0	-87.28699493	107.1060028	-0.2602375746	1.235310629e-05	-1.340429662e-06	1.0
16	0	-87.28699493	107.1060028	-0.8108239174	6.19192906e-06	-2.494332705e-07	1.0
17	0	-87.28699493	107.1060028	-2.347813129	1.177420017e-06	-2.14935244e-06	1.0
[RightUpLeg]
15	-82.07800293	-67.51699829	-15.99599934	-8.84713459	-23.13267899	4.17899704	1.0
16	-82.07800293	-67.51699829	-15.99599934	-8.855408669	-25.98066902	5.979142189	1.0
17	-82.07800293	-67.51699829	-15.99599934	-7.472737312	-28.08990097	6.060325623	1.0
[RightLeg]
15	0	-443.7049866	2.861999989	21.26247978	2.486273289	7.398407936	1.0
16	0	-443.7049866	2.861999989	20.2536087	1.771765709	4.199066162	1.0
17	0	-443.7049866	2.861999989	18.00872803	0.7972638607	3.595674515	1.0
[RightFoot]
15	0	-444.2770081	-29.83799934	-10.81387711	-18.39049911	-4.664820194	1.0
16	0	-444.2770081	-29.83799934	-10.92433071	-17.40675926	-3.202527761	1.0
17	0	-444.2770081	-29.83799934	-10.28576183	-15.42481136	-2.897633553	1.0
[RightToeBase]
15	0	-87.28699493	107.1060028	0.00832864549	-2.725146078e-05	1.142880251e-06	1.0
16	0	-87.28699493	107.1060028	-0.9883315563	5.98749757e-05	1.524802684e-07	1.0
17	0	-87.28699493	107.1060028	-0.8874561787	3.543436469e-05	1.255525035e-07	1.0
[EndOfFile]
